<?xml version="1.0" encoding="UTF-8" standalone="no"?>
<svg
   xmlns:dc="http://purl.org/dc/elements/1.1/"
   xmlns:cc="http://creativecommons.org/ns#"
   xmlns:rdf="http://www.w3.org/1999/02/22-rdf-syntax-ns#"
   xmlns:svg="http://www.w3.org/2000/svg"
   xmlns="http://www.w3.org/2000/svg"
   xmlns:sodipodi="http://sodipodi.sourceforge.net/DTD/sodipodi-0.dtd"
   xmlns:inkscape="http://www.inkscape.org/namespaces/inkscape"
   enable-background="new 0 0 24 24"
   height="24"
   viewBox="0 0 24 24"
   width="24"
   version="1.1"
   id="svg30"
   sodipodi:docname="leaderboard-24px.svg"
   inkscape:version="1.0.2-2 (e86c870879, 2021-01-15)">
  <metadata
     id="metadata36">
    <rdf:RDF>
      <cc:Work
         rdf:about="">
        <dc:format>image/svg+xml</dc:format>
        <dc:type
           rdf:resource="http://purl.org/dc/dcmitype/StillImage" />
      </cc:Work>
    </rdf:RDF>
  </metadata>
  <defs
     id="defs34" />
  <sodipodi:namedview
     pagecolor="#ffffff"
     bordercolor="#666666"
     borderopacity="1"
     objecttolerance="10"
     gridtolerance="10"
     guidetolerance="10"
     inkscape:pageopacity="0"
     inkscape:pageshadow="2"
     inkscape:window-width="1366"
     inkscape:window-height="745"
     id="namedview32"
     showgrid="false"
     inkscape:zoom="23.125"
     inkscape:cx="11.243243"
     inkscape:cy="12"
     inkscape:window-x="-8"
     inkscape:window-y="-8"
     inkscape:window-maximized="1"
     inkscape:current-layer="svg30"
     inkscape:document-rotation="0" />
  <rect
     fill="none"
     height="24"
     width="24"
     id="rect24" />
  <path
     style="fill:#9da5b0;fill-opacity:1;stroke-width:0.0432432"
     d="m 17.05946,20.957024 c -0.219687,-0.100227 -0.480748,-0.368495 -0.551046,-0.56626 -0.04247,-0.119491 -0.05436,-1.263833 -0.05436,-5.234008 0,-2.794594 0.01601,-5.175028 0.03559,-5.2898529 0.02519,-0.1477535 0.08111,-0.2591623 0.191345,-0.3811778 0.299956,-0.3320155 0.187512,-0.3166126 2.418805,-0.3313332 1.919833,-0.012666 2.003587,-0.00986 2.165111,0.072544 0.20386,0.1040014 0.471968,0.3917714 0.517785,0.5557573 0.01844,0.066005 0.03353,2.4746036 0.03353,5.3524416 0,4.825264 -0.0057,5.24278 -0.07288,5.365412 -0.107847,0.19679 -0.395356,0.438677 -0.583523,0.490928 -0.105023,0.02916 -0.850606,0.04562 -2.046304,0.04517 -1.727993,-6.53e-4 -1.895158,-0.0071 -2.054054,-0.07962 z"
     id="path869" />
  <path
     style="fill:#9da5b0;fill-opacity:1;stroke-width:0.0432432"
     d="m 2.5795088,20.834381 c -0.168367,-0.08796 -0.266775,-0.178205 -0.361695,-0.331707 l -0.130397,-0.210875 -0.01273,-3.929277 c -0.007,-2.161102 0.005,-4.124763 0.02661,-4.363691 0.04519,-0.498993 0.09489,-0.593234 0.419257,-0.79497 l 0.208591,-0.12973 1.916859,-0.01251 c 1.306042,-0.0085 1.973641,0.0028 2.095053,0.03547 0.223707,0.06024 0.576545,0.383238 0.652447,0.597274 0.08218,0.231728 0.08218,8.387254 0,8.618982 -0.07338,0.20691 -0.427458,0.535499 -0.640911,0.594766 -0.108136,0.03002 -0.839354,0.0467 -2.054828,0.04685 l -1.886954,2.41e-4 z"
     id="path871" />
  <path
     style="fill:#bec4cd;fill-opacity:1;stroke-width:0.0432432"
     d="m 10.81081,20.997504 c -0.392432,-0.0164 -0.763258,-0.05104 -0.8240585,-0.07697 C 9.7953827,20.838894 9.5995745,20.644937 9.4897659,20.42824 L 9.3837837,20.219091 V 12.043243 3.8673952 L 9.4904031,3.6569919 c 0.1370122,-0.2703806 0.3678885,-0.4589483 0.6458429,-0.527491 0.311533,-0.076823 3.588947,-0.076823 3.90048,0 0.277955,0.068543 0.508831,0.2571104 0.645843,0.527491 l 0.10662,0.2104033 v 8.1758478 8.175848 l -0.10662,0.210403 c -0.13034,0.257214 -0.363137,0.456428 -0.601302,0.514558 -0.233063,0.05689 -2.357406,0.09161 -3.270457,0.05345 z"
     id="path873" />
</svg>
